<?xml version="1.0" encoding="UTF-8" standalone="no"?><!DOCTYPE svg PUBLIC "-//W3C//DTD SVG 1.1//EN" "http://www.w3.org/Graphics/SVG/1.1/DTD/svg11.dtd"><svg width="16px" height="16px" viewBox="0 0 16 16" version="1.1" xmlns="http://www.w3.org/2000/svg" xmlns:xlink="http://www.w3.org/1999/xlink" xml:space="preserve" xmlns:serif="http://www.serif.com/" style="fill-rule:evenodd;clip-rule:evenodd;stroke-linejoin:round;stroke-miterlimit:2;"><g transform="matrix(1,0,0,1,0,-1)"><path d="M5,4L5,2.994C5.003,2.445 5.45,2 6,2L9.006,2C9.555,2.003 10,2.45 10,3L10,4L13,4L13,5L12,5L12,14L11,15L4,15L3,14L3,5L2,5L2,4L5,4ZM4,5L4,14L11,14L11,5L4,5ZM6,6L5,6L5,13L6,13L6,6ZM8,6L7,6L7,13L8,13L8,6ZM10,6L9,6L9,13L10,13L10,6ZM9,4L9,3L6,3L6,4L9,4Z" style="fill:rgb(197,197,197);"/></g></svg>