<?xml version="1.0" encoding="UTF-8" standalone="no"?><!DOCTYPE svg PUBLIC "-//W3C//DTD SVG 1.1//EN" "http://www.w3.org/Graphics/SVG/1.1/DTD/svg11.dtd"><svg width="16px" height="16px" viewBox="0 0 16 16" version="1.1" xmlns="http://www.w3.org/2000/svg" xmlns:xlink="http://www.w3.org/1999/xlink" xml:space="preserve" xmlns:serif="http://www.serif.com/" style="fill-rule:evenodd;clip-rule:evenodd;stroke-linejoin:round;stroke-miterlimit:2;"><g transform="matrix(1,0,0,1,-1,0)"><path d="M7,15L3,15L2,14L2,2L3,1L9,1L9.707,1.293L12.707,4.293L13,5L13,7L12,7L12,6L8,6L8,2L3,2L3,14L7,14L7,15ZM12,5L9,2L9,5L12,5Z" style="fill:rgb(66,66,66);"/></g><path d="M15.072,12L12.715,14.357L13.333,14.976L16,12.309L16,11.691L13.333,9.024L12.715,9.643L15.072,12ZM8.928,12L11.285,14.357L10.667,14.976L8,12.309L8,11.691L10.667,9.024L11.285,9.643L8.928,12Z" style="fill:rgb(66,66,66);"/></svg>