<?xml version="1.0" encoding="UTF-8" standalone="no"?><!DOCTYPE svg PUBLIC "-//W3C//DTD SVG 1.1//EN" "http://www.w3.org/Graphics/SVG/1.1/DTD/svg11.dtd"><svg width="16px" height="16px" viewBox="0 0 16 16" version="1.1" xmlns="http://www.w3.org/2000/svg" xmlns:xlink="http://www.w3.org/1999/xlink" xml:space="preserve" xmlns:serif="http://www.serif.com/" style="fill-rule:evenodd;clip-rule:evenodd;stroke-linejoin:round;stroke-miterlimit:2;"><path d="M15.072,12L12.715,14.357L13.333,14.976L16,12.309L16,11.691L13.333,9.024L12.715,9.643L15.072,12ZM8.928,12L11.285,14.357L10.667,14.976L8,12.309L8,11.691L10.667,9.024L11.285,9.643L8.928,12Z" style="fill:rgb(197,197,197);"/><path d="M5.995,14.002L0.5,14.002L0,13.502L0.011,2.5L0.511,2L5.507,2L5.861,2.146L6.713,2.999L13.501,2.999L14.001,3.499L13.997,7L12.99,7L12.99,6.003L6.708,6.003L5.85,6.861L5.496,7.007L1.011,7.007L1,13.002L5.995,13.002L5.995,14.002ZM6.506,3.999L6.153,3.853L5.3,3L1.011,3L1.011,6.007L5.289,6.007L6.147,5.15L6.501,5.003L13.001,5.003L13.001,3.999L6.506,3.999Z" style="fill:rgb(197,197,197);"/></svg>