<?xml version="1.0" encoding="UTF-8" standalone="no"?><!DOCTYPE svg PUBLIC "-//W3C//DTD SVG 1.1//EN" "http://www.w3.org/Graphics/SVG/1.1/DTD/svg11.dtd"><svg width="16px" height="16px" viewBox="0 0 16 16" version="1.1" xmlns="http://www.w3.org/2000/svg" xmlns:xlink="http://www.w3.org/1999/xlink" xml:space="preserve" xmlns:serif="http://www.serif.com/" style="fill-rule:evenodd;clip-rule:evenodd;stroke-linejoin:round;stroke-miterlimit:2;"><path d="M10,5L11.001,6L11,10L13,10L13,3L6,3L6,5L10,5ZM10,6L3,6L3,13L10,13L10,6ZM9,9L4,9L4,10L9,10L9,9ZM5,5L5,3L6,2L13,2L14.001,3L14,10L13,11L11,11L11,13L10,14L3,14L2,13L2,6L3,5L5,5Z" style="fill:rgb(66,66,66);"/></svg>