<?xml version="1.0" encoding="UTF-8" standalone="no"?><!DOCTYPE svg PUBLIC "-//W3C//DTD SVG 1.1//EN" "http://www.w3.org/Graphics/SVG/1.1/DTD/svg11.dtd"><svg width="16px" height="16px" viewBox="0 0 16 16" version="1.1" xmlns="http://www.w3.org/2000/svg" xmlns:xlink="http://www.w3.org/1999/xlink" xml:space="preserve" xmlns:serif="http://www.serif.com/" style="fill-rule:evenodd;clip-rule:evenodd;stroke-linejoin:round;stroke-miterlimit:2;"><path id="_3" serif:id="3" d="M10,12l2.5,0c0.829,-0.002 1.5,-0.673 1.5,-1.5c0,-0.827 -0.671,-1.499 -1.5,-1.5l-1.5,0l0,-2l1.5,0c0.829,-0.002 1.5,-0.673 1.5,-1.5c0,-0.827 -0.671,-1.499 -1.5,-1.5l-2.5,0l0,-2l2.5,0l0.09,0.001c1.89,0.048 3.41,1.597 3.41,3.499c0,0.979 -0.403,1.865 -1.052,2.5c0.649,0.635 1.052,1.521 1.052,2.5c0,1.932 -1.568,3.5 -3.5,3.5l-2.5,0l0,-2Z" style="fill:#c5c5c5;"/><rect id="_1" serif:id="1" x="7" y="2" width="2" height="12" style="fill:#c5c5c5;"/><path id="L" d="M6,12l0,2l-4,0l-0.103,-0.003c-1.056,-0.053 -1.897,-0.928 -1.897,-1.997l0,-10l2,0l0,10l4,0Z" style="fill:#c5c5c5;"/></svg>