<?xml version="1.0" encoding="UTF-8" standalone="no"?><!DOCTYPE svg PUBLIC "-//W3C//DTD SVG 1.1//EN" "http://www.w3.org/Graphics/SVG/1.1/DTD/svg11.dtd"><svg width="24px" height="24px" viewBox="0 0 24 24" version="1.1" xmlns="http://www.w3.org/2000/svg" xmlns:xlink="http://www.w3.org/1999/xlink" xml:space="preserve" xmlns:serif="http://www.serif.com/" style="fill-rule:evenodd;clip-rule:evenodd;stroke-linejoin:round;stroke-miterlimit:2;"><g transform="matrix(1,0,0,1,1,1)"><path d="M22,20L0,20L0,21.5L22,21.5L22,20ZM22,0L0,0L0,1.5L22,1.5L22,0Z"/><g transform="matrix(1,0,0,0.75,0,3)"><rect x="0" y="12" width="22" height="2"/></g><path d="M11,16L0,16L0,17.5L11,17.5L11,16ZM22,8L11,8L11,9.5L22,9.5L22,8ZM11,4L0,4L0,5.5L11,5.5L11,4Z"/></g></svg>