<?xml version="1.0" encoding="UTF-8" standalone="no"?>
<!DOCTYPE svg PUBLIC "-//W3C//DTD SVG 1.1//EN" "http://www.w3.org/Graphics/SVG/1.1/DTD/svg11.dtd">
<svg width="28px" height="28px" viewBox="0 0 28 28" version="1.1" xmlns="http://www.w3.org/2000/svg" xmlns:xlink="http://www.w3.org/1999/xlink" xml:space="preserve" xmlns:serif="http://www.serif.com/" style="fill-rule:evenodd;clip-rule:evenodd;stroke-linejoin:round;stroke-miterlimit:1.41421;">
    <g transform="matrix(1,0,0,1,3,3)">
        <path d="M22,20L22,22L0,22L0,20L22,20ZM22,0L22,2L0,2L0,0L22,0Z"/>
        <rect x="0" y="12" width="22" height="2" style="fill-opacity:0.8;"/>
        <path d="M11,16L11,18L0,18L0,16L11,16ZM22,8L22,10L11,10L11,8L22,8ZM11,4L11,6L0,6L0,4L11,4Z" style="fill-opacity:0.6;"/>
    </g>
</svg>
