<?xml version="1.0" encoding="UTF-8" standalone="no"?><!DOCTYPE svg PUBLIC "-//W3C//DTD SVG 1.1//EN" "http://www.w3.org/Graphics/SVG/1.1/DTD/svg11.dtd"><svg width="16px" height="16px" viewBox="0 0 16 16" version="1.1" xmlns="http://www.w3.org/2000/svg" xmlns:xlink="http://www.w3.org/1999/xlink" xml:space="preserve" xmlns:serif="http://www.serif.com/" style="fill-rule:evenodd;clip-rule:evenodd;stroke-linejoin:round;stroke-miterlimit:2;"><path d="M16,12L3,12L3,13L16,13L16,12ZM16,9L3,9L3,10L16,10L16,9ZM7,4L4,4L4,7L3,7L3,4L0,4L0,3L3,3L3,0L4,0L4,3L7,3L7,4ZM16,6L5,6L5,7L16,7L16,6ZM16,3L8,3L8,4L16,4L16,3Z" style="fill:rgb(197,197,197);"/></svg>