<?xml version="1.0" encoding="UTF-8" standalone="no"?><!DOCTYPE svg PUBLIC "-//W3C//DTD SVG 1.1//EN" "http://www.w3.org/Graphics/SVG/1.1/DTD/svg11.dtd"><svg width="16px" height="16px" viewBox="0 0 16 16" version="1.1" xmlns="http://www.w3.org/2000/svg" xmlns:xlink="http://www.w3.org/1999/xlink" xml:space="preserve" xmlns:serif="http://www.serif.com/" style="fill-rule:evenodd;clip-rule:evenodd;stroke-linejoin:round;stroke-miterlimit:2;"><path d="M1,14L13,14L13,10L13.002,10L13.001,7L13,7L13,6L13.001,6L13.001,3.999L1,4L1,14ZM14,12L14.999,12L14.999,8L15.001,8L15,5L14.999,5L14.999,4L15,4L15,1.999L2.999,2L2.999,3L13,3L14.001,4L14,10L14,12ZM14,14L13,15L1,15L0,14L0,4L1,3L1.999,3L1.999,2L2.999,1L14.999,1L16,2L15.999,8L15.999,12L14.999,13L14,13L14,14Z" style="fill:rgb(197,197,197);"/></svg>