<?xml version="1.0" encoding="UTF-8" standalone="no"?><!DOCTYPE svg PUBLIC "-//W3C//DTD SVG 1.1//EN" "http://www.w3.org/Graphics/SVG/1.1/DTD/svg11.dtd"><svg width="40px" height="20px" viewBox="0 0 40 20" version="1.1" xmlns="http://www.w3.org/2000/svg" xmlns:xlink="http://www.w3.org/1999/xlink" xml:space="preserve" xmlns:serif="http://www.serif.com/" style="fill-rule:evenodd;clip-rule:evenodd;stroke-linejoin:round;stroke-miterlimit:2;"><g transform="matrix(1,0,0,1,24,0)"><path d="M4.5,17L4.5,18L3,18L2,17L4.5,17ZM7.5,18L5.5,18L5.5,17L7.5,17L7.5,18ZM10.5,18L8.5,18L8.5,17L10.5,17L10.5,18ZM13,18L11.5,18L11.5,17L14,17L13,18ZM13,16L13,14L14,14L14,16L13,16ZM3,14L3,16L2,16L2,14L3,14ZM13,13L13,11L14,11L14,13L13,13ZM13,10L13,8L14,8L14,10L13,10ZM9,7L9,5L10,5L10,6L11,6L11,7L9,7ZM3,5L3,7L2,7L2,5L3,5ZM9,2L10,2L10.707,2.293L11.854,3.439L11.146,4.146L10,3L10,4L9,4L9,2ZM5,2L5,3L3,3L3,4L2,4L2,3L3,2L5,2ZM8,3L6,3L6,2L8,2L8,3ZM11.854,4.854L12.561,4.146L13.707,5.293L14,6L14,7L12,7L12,6L13,6L11.854,4.854Z"/></g><g transform="matrix(1,0,0,1,14.985,2.48737)"><path d="M10.072,8L6.715,11.357L7.333,11.976L11,8.309L11,7.691L7.333,4.024L6.715,4.643L10.072,8Z"/></g><g transform="matrix(3.67219,0,0,1,-40.755,1)"><rect x="16" y="9" width="2" height="1"/></g><g transform="matrix(1,0,0,1,-1,1)"><path d="M4,1L3,2L3,16L4,17L14,17L15,16L15,5L14.707,4.293L11.707,1.293L11,1L4,1ZM4,16L4,2L10,2L10,6L14,6L14,16L4,16ZM14,5L11,2L11,5L14,5Z"/></g></svg>