<?xml version="1.0" encoding="UTF-8" standalone="no"?><!DOCTYPE svg PUBLIC "-//W3C//DTD SVG 1.1//EN" "http://www.w3.org/Graphics/SVG/1.1/DTD/svg11.dtd"><svg width="40px" height="20px" viewBox="0 0 40 20" version="1.1" xmlns="http://www.w3.org/2000/svg" xmlns:xlink="http://www.w3.org/1999/xlink" xml:space="preserve" xmlns:serif="http://www.serif.com/" style="fill-rule:evenodd;clip-rule:evenodd;stroke-linejoin:round;stroke-miterlimit:2;"><path d="M27,2l-1,1l0,14l1,1l10,0l1,-1l0,-11l-0.293,-0.707l-3,-3l-0.707,-0.293l-7,0Zm0,15l0,-14l6,0l0,4l4,0l0,10l-10,0Zm10,-11l-3,-3l0,3l3,0Z"/><path d="M18.928,9.487l3.357,3.357l-0.618,0.619l-3.667,-3.667l0,-0.618l3.667,-3.667l0.618,0.619l-3.357,3.357Z"/><path d="M3,2l-1,1l0,14l1,1l10,0l1,-1l0,-11l-0.293,-0.707l-3,-3l-0.707,-0.293l-7,0Zm0,15l0,-14l6,0l0,4l4,0l0,10l-10,0Zm10,-11l-3,-3l0,3l3,0Z" style="fill-opacity:0.5;"/></svg>