<?xml version="1.0" encoding="UTF-8" standalone="no"?><!DOCTYPE svg PUBLIC "-//W3C//DTD SVG 1.1//EN" "http://www.w3.org/Graphics/SVG/1.1/DTD/svg11.dtd"><svg width="100%" height="100%" viewBox="0 0 40 20" version="1.1" xmlns="http://www.w3.org/2000/svg" xmlns:xlink="http://www.w3.org/1999/xlink" xml:space="preserve" xmlns:serif="http://www.serif.com/" style="fill-rule:evenodd;clip-rule:evenodd;stroke-linejoin:round;stroke-miterlimit:2;"><path d="M11,0.978l-8.099,0c0,0 -1.901,0.074 -1.901,1.897l0,14.228c0,0 0,1.897 1.901,1.897l10.199,-0.004c1.9,0.004 1.9,-1.893 1.9,-1.893l0,-10.9l-4,-5.225Zm-1,2.022l0,4l3,0l0,10l-10,0l0,-14l7,0Z" style="fill-rule:nonzero;"/><path d="M35,0.989l-8.099,0c0,0 -1.901,0.074 -1.901,1.897l0,14.228c0,0 0,1.897 1.901,1.897l10.199,-0.004c1.9,0.004 1.9,-1.893 1.9,-1.893l0,-10.9l-4,-5.225Zm-1,2.022l0,4l3,0l0,10l-10,0l0,-14l7,0Z" style="fill-opacity:0.5;fill-rule:nonzero;"/><path d="M24,9.487l-6.975,3.488l0,-6.975l6.975,3.487Z"/></svg>