<?xml version="1.0" encoding="UTF-8" standalone="no"?><!DOCTYPE svg PUBLIC "-//W3C//DTD SVG 1.1//EN" "http://www.w3.org/Graphics/SVG/1.1/DTD/svg11.dtd"><svg width="40px" height="20px" viewBox="0 0 40 20" version="1.1" xmlns="http://www.w3.org/2000/svg" xmlns:xlink="http://www.w3.org/1999/xlink" xml:space="preserve" xmlns:serif="http://www.serif.com/" style="fill-rule:evenodd;clip-rule:evenodd;stroke-linejoin:round;stroke-miterlimit:2;"><path d="M28,17L28,18L26,18L25,17L28,17ZM31,18L29,18L29,17L31,17L31,18ZM34,18L32,18L32,17L34,17L34,18ZM37,18L35,18L35,17L38,17L37,18ZM37,16L37,14L38,14L38,16L37,16ZM26,14L26,16L25,16L25,14L26,14ZM37,13L37,11L38,11L38,13L37,13ZM37,10L37,8L38,8L38,10L37,10ZM26,5L26,7L25,7L25,5L26,5ZM35.854,4.854L36.561,4.146L37.707,5.293L38,6L38,7L36,7L36,6L37,6L35.854,4.854ZM33,7L33,5L34,5L34,6L35,6L35,7L33,7ZM33,2L34,2L34.707,2.293L35.854,3.439L35.146,4.146L34,3L34,4L33,4L33,2ZM26,2L26,4L25,4L25,3L26,2ZM32,3L30,3L30,2L32,2L32,3ZM29,2L27,2L27,3L29,3L29,2Z"/><g transform="matrix(1,0,0,1,1,0)"><path d="M23.57,10L20.7,7.13L21.318,6.511L24.985,10.178L24.985,10.796L21.318,14.463L20.7,13.844L23.544,11L17,11L17,10L23.57,10Z"/></g><g transform="matrix(1,0,0,1,-1,1)"><path d="M4,1L3,2L3,16L4,17L15,17L16,16L16,5L15.707,4.293L12.707,1.293L12,1L4,1ZM4,16L4,2L11,2L11,6L15,6L15,16L4,16ZM15,5L12,2L12,5L15,5Z"/></g></svg>