<?xml version="1.0" encoding="UTF-8" standalone="no"?>
<!DOCTYPE svg PUBLIC "-//W3C//DTD SVG 1.1//EN" "http://www.w3.org/Graphics/SVG/1.1/DTD/svg11.dtd">
<svg width="100%" height="100%" viewBox="0 0 28 24" version="1.1" xmlns="http://www.w3.org/2000/svg" xmlns:xlink="http://www.w3.org/1999/xlink" xml:space="preserve" xmlns:serif="http://www.serif.com/" style="fill-rule:evenodd;clip-rule:evenodd;stroke-linejoin:round;stroke-miterlimit:1.41421;">
    <path d="M25.973,19.399C25.973,20.301 25.236,21.031 24.325,21.031L3.648,21.031C2.744,21.031 2,20.301 2,19.402L2,4.66C2,3.758 2.741,3.031 3.656,3.031C3.656,3.031 9.099,3.031 11.562,3.031C12.327,3.031 13.068,3.3 13.655,3.791C14.305,4.335 15.173,5.061 15.809,5.593C16.358,6.052 17.05,6.304 17.766,6.304C19.887,6.304 24.316,6.304 24.316,6.304C25.231,6.304 25.973,7.034 25.973,7.936L25.973,19.399Z"/>
</svg>