<?xml version="1.0" encoding="UTF-8" standalone="no"?><!DOCTYPE svg PUBLIC "-//W3C//DTD SVG 1.1//EN" "http://www.w3.org/Graphics/SVG/1.1/DTD/svg11.dtd"><svg width="16px" height="16px" viewBox="0 0 16 16" version="1.1" xmlns="http://www.w3.org/2000/svg" xmlns:xlink="http://www.w3.org/1999/xlink" xml:space="preserve" xmlns:serif="http://www.serif.com/" style="fill-rule:evenodd;clip-rule:evenodd;stroke-linejoin:round;stroke-miterlimit:2;"><path d="M1.011,2.5l0.5,-0.5l4.996,0l0.354,0.146l0.852,0.853l6.788,0l0.5,0.5l-0.011,10.003l-0.5,0.5l-12.99,0l-0.5,-0.5l0.011,-11.002Zm12.99,1.499l0,1.004l-6.501,0l-0.353,0.147l-0.858,0.857l-4.278,0l0,-3.007l4.289,0l0.853,0.853l0.353,0.146l6.495,0Zm-7.505,3.008l-4.485,0l-0.011,5.995l11.99,0l0,-6.999l-6.282,0l-0.858,0.858l-0.354,0.146Z"/></svg>