<?xml version="1.0" encoding="UTF-8" standalone="no"?><!DOCTYPE svg PUBLIC "-//W3C//DTD SVG 1.1//EN" "http://www.w3.org/Graphics/SVG/1.1/DTD/svg11.dtd"><svg width="16px" height="16px" viewBox="0 0 16 16" version="1.1" xmlns="http://www.w3.org/2000/svg" xmlns:xlink="http://www.w3.org/1999/xlink" xml:space="preserve" xmlns:serif="http://www.serif.com/" style="fill-rule:evenodd;clip-rule:evenodd;stroke-linejoin:round;stroke-miterlimit:2;"><g transform="matrix(1,0,0,1,5,4)"><path d="M3,7L3,8L2,8L2,7L3,7ZM1,2.5L0,2.5C0,1.12 1.12,0 2.5,0C3.88,0 5,1.12 5,2.5C5,3.424 4.497,4.232 3.75,4.665C3.293,4.922 3,5.439 3,6L2,6C2,5.073 2.49,4.236 3.241,3.804C3.694,3.546 4,3.058 4,2.5C4,1.672 3.328,1 2.5,1C1.672,1 1,1.672 1,2.5Z"/></g></svg>