<?xml version="1.0" encoding="UTF-8" standalone="no"?><!DOCTYPE svg PUBLIC "-//W3C//DTD SVG 1.1//EN" "http://www.w3.org/Graphics/SVG/1.1/DTD/svg11.dtd"><svg width="16px" height="16px" viewBox="0 0 16 16" version="1.1" xmlns="http://www.w3.org/2000/svg" xmlns:xlink="http://www.w3.org/1999/xlink" xml:space="preserve" xmlns:serif="http://www.serif.com/" style="fill-rule:evenodd;clip-rule:evenodd;stroke-linejoin:round;stroke-miterlimit:2;"><g transform="matrix(1,0,0,1,-1,0)"><path d="M5.914,6L8.06,3.854L8.06,3.146L5.915,1L5.208,1.707L6.501,3L3.501,3C2.13,3 1.001,4.129 1.001,5.5C1.001,6.871 2.13,8 3.501,8L4,8L4,7L3.5,7C2.677,7 2,6.323 2,5.5C2,4.677 2.677,4 3.5,4L6.5,4L5.207,5.293L5.914,6ZM11,2L8.328,2L7.328,1L12,1L12.71,1.29L15.71,4.29L16,5L16,14L15,15L6,15L5,14L5,6.5L6,7.347L6,14L15,14L15,6L11,6L11,2ZM12,2L12,5L15,5L12,2Z"/></g></svg>