<?xml version="1.0" encoding="UTF-8" standalone="no"?><!DOCTYPE svg PUBLIC "-//W3C//DTD SVG 1.1//EN" "http://www.w3.org/Graphics/SVG/1.1/DTD/svg11.dtd"><svg width="16px" height="16px" viewBox="0 0 16 16" version="1.1" xmlns="http://www.w3.org/2000/svg" xmlns:xlink="http://www.w3.org/1999/xlink" xml:space="preserve" xmlns:serif="http://www.serif.com/" style="fill-rule:evenodd;clip-rule:evenodd;stroke-linejoin:round;stroke-miterlimit:2;"><g transform="matrix(1,0,0,1,0.5,0.596191)"><path d="M7,10.131L8.17,10.131L8.17,11.301L7,11.301L7,10.131ZM9.25,4.881C9.405,5.037 9.524,5.225 9.6,5.431C9.668,5.648 9.702,5.874 9.7,6.101C9.7,6.319 9.663,6.536 9.59,6.741C9.519,6.935 9.425,7.12 9.31,7.291C9.201,7.459 9.081,7.62 8.95,7.771L8.59,8.211C8.486,8.34 8.392,8.477 8.31,8.621C8.241,8.751 8.203,8.895 8.2,9.041L8.2,9.531L7,9.531L7,8.871C6.996,8.699 7.031,8.529 7.1,8.371C7.173,8.212 7.263,8.061 7.37,7.921C7.48,7.781 7.6,7.641 7.72,7.511L8.07,7.091C8.177,6.948 8.267,6.794 8.34,6.631C8.413,6.474 8.45,6.304 8.45,6.131C8.451,6.028 8.431,5.926 8.39,5.831C8.354,5.747 8.299,5.671 8.23,5.611C8.167,5.55 8.092,5.502 8.01,5.471C7.921,5.457 7.829,5.457 7.74,5.471C7.636,5.465 7.533,5.482 7.436,5.52C7.139,5.649 6.942,5.938 6.93,6.261L5.7,6.261C5.72,6.016 5.771,5.774 5.85,5.541C5.935,5.312 6.064,5.101 6.23,4.921C6.4,4.725 6.611,4.571 6.85,4.471C7.128,4.354 7.428,4.296 7.73,4.301C8.041,4.291 8.351,4.345 8.64,4.461C8.87,4.558 9.077,4.701 9.25,4.881Z"/></g><path d="M15.142,7.657L15.142,8.343L8.485,15L7.515,15L1,8.485L1,7.515L7.515,1L8.485,1L15.142,7.657ZM14.071,8L8,1.929L1.929,8L8,14.071L14.071,8Z"/></svg>