<?xml version="1.0" encoding="UTF-8" standalone="no"?><!DOCTYPE svg PUBLIC "-//W3C//DTD SVG 1.1//EN" "http://www.w3.org/Graphics/SVG/1.1/DTD/svg11.dtd"><svg width="40px" height="20px" viewBox="0 0 40 20" version="1.1" xmlns="http://www.w3.org/2000/svg" xmlns:xlink="http://www.w3.org/1999/xlink" xml:space="preserve" xmlns:serif="http://www.serif.com/" style="fill-rule:evenodd;clip-rule:evenodd;stroke-linejoin:round;stroke-miterlimit:2;"><g transform="matrix(1,0,0,1,23,1)"><path d="M3,1L2,2L2,16L3,17L14,17L15,16L15,5L14.707,4.293L11.707,1.293L11,1L3,1ZM3,16L3,2L10,2L10,6L14,6L14,16L3,16ZM14,5L11,2L11,5L14,5Z"/></g><path d="M15.441,11L18.285,13.844L17.667,14.463L14,10.796L14,10.178L17.667,6.511L18.285,7.13L15.415,10L22,10L22,11L15.441,11ZM14.928,10.487L14.941,10.5L14.941,10.475L14.928,10.487Z"/><g transform="matrix(1,0,0,1,-23,-1.77636e-15)"><path d="M28,17L28,18L26,18L25,17L28,17ZM31,18L29,18L29,17L31,17L31,18ZM34,18L32,18L32,17L34,17L34,18ZM37,18L35,18L35,17L38,17L37,18ZM37,16L37,14L38,14L38,16L37,16ZM26,14L26,16L25,16L25,14L26,14ZM25,13L25,11L26,11L26,13L25,13ZM25,10L25,8L26,8L26,10L25,10ZM26,5L26,7L25,7L25,5L26,5ZM35.854,4.854L36.561,4.146L37.707,5.293L38,6L38,7L36,7L36,6L37,6L35.854,4.854ZM33,7L33,5L34,5L34,6L35,6L35,7L33,7ZM33,2L34,2L34.707,2.293L35.854,3.439L35.146,4.146L34,3L34,4L33,4L33,2ZM26,2L26,4L25,4L25,3L26,2ZM32,3L30,3L30,2L32,2L32,3ZM29,2L27,2L27,3L29,3L29,2Z"/></g></svg>