<?xml version="1.0" encoding="UTF-8" standalone="no"?><!DOCTYPE svg PUBLIC "-//W3C//DTD SVG 1.1//EN" "http://www.w3.org/Graphics/SVG/1.1/DTD/svg11.dtd"><svg width="16px" height="16px" viewBox="0 0 16 16" version="1.1" xmlns="http://www.w3.org/2000/svg" xmlns:xlink="http://www.w3.org/1999/xlink" xml:space="preserve" xmlns:serif="http://www.serif.com/" style="fill-rule:evenodd;clip-rule:evenodd;stroke-linejoin:round;stroke-miterlimit:2;"><g transform="matrix(1,0,0,1,-4,2)"><path d="M5,10L5,13L4,12L4,10L5,10ZM8,13L6,13L6,12L8,12L8,13ZM11,13L9,13L9,12L11,12L11,13ZM14,10L14,12L13,13L12,13L12,12L13,12L13,10L14,10ZM13,9L13,7L14,7L14,9L13,9ZM4,9L4,7L5,7L5,9L4,9ZM9,6L9,4L10,4L10,5L11,5L11,6L9,6ZM4,6L4,4L5,4L5,6L4,6ZM4,3L4,2L5,1L5,3L4,3ZM8,2L6,2L6,1L8,1L8,2ZM9,1L10,1L10.707,1.293L13.707,4.293L14,5L14,6L12,6L12,5L13,5L10,2L10,3L9,3L9,1Z"/></g><path d="M5,3L5,2L6,1L11,1L11.707,1.293L14.707,4.293L15,5L15,12L14,13L10,13L10,12L14,12L14,6L10,6L10,2L6,2L6,3L5,3ZM14,5L11,2L11,5L14,5Z"/></svg>