<?xml version="1.0" encoding="UTF-8" standalone="no"?><!DOCTYPE svg PUBLIC "-//W3C//DTD SVG 1.1//EN" "http://www.w3.org/Graphics/SVG/1.1/DTD/svg11.dtd"><svg width="21px" height="21px" viewBox="0 0 21 21" version="1.1" xmlns="http://www.w3.org/2000/svg" xmlns:xlink="http://www.w3.org/1999/xlink" xml:space="preserve" xmlns:serif="http://www.serif.com/" style="fill-rule:evenodd;clip-rule:evenodd;stroke-linejoin:round;stroke-miterlimit:2;"><path d="M2.011,4.502l0.5,-0.5l5.996,0l0.354,0.146l0.852,0.853l8.788,0l0.5,0.5l-0.011,11.003l-0.5,0.5l-15.99,0l-0.5,-0.5l0.011,-12.002Zm15.99,1.499l0,1.004l-8.501,0l-0.353,0.146l-0.858,0.858l-5.278,0l0,-3.007l5.289,0l0.853,0.852l0.353,0.147l8.495,0Zm-9.505,3.008l-5.485,0l-0.011,6.995l14.99,0l0,-7.999l-8.282,0l-0.858,0.858l-0.354,0.146Z"/></svg>