<?xml version="1.0" encoding="UTF-8" standalone="no"?><!DOCTYPE svg PUBLIC "-//W3C//DTD SVG 1.1//EN" "http://www.w3.org/Graphics/SVG/1.1/DTD/svg11.dtd"><svg width="16px" height="16px" viewBox="0 0 16 16" version="1.1" xmlns="http://www.w3.org/2000/svg" xmlns:xlink="http://www.w3.org/1999/xlink" xml:space="preserve" xmlns:serif="http://www.serif.com/" style="fill-rule:evenodd;clip-rule:evenodd;stroke-linejoin:round;stroke-miterlimit:2;"><path d="M0.011,1.5L0.511,1L6.507,1L6.861,1.146L7.713,1.999L15.501,1.999L16.001,2.499L15.99,13.502L15.49,14.002L0.5,14.002L0,13.502L0.011,1.5ZM15.001,2.999L15.001,4.003L7.501,4.003L7.147,4.15L6.289,5.007L1.011,5.007L1.011,2L6.3,2L7.153,2.853L7.506,2.999L15.001,2.999ZM6.496,6.007L1.011,6.007L1,13.002L14.99,13.002L14.99,5.003L7.708,5.003L6.85,5.861L6.496,6.007Z"/></svg>