<?xml version="1.0" encoding="UTF-8" standalone="no"?><!DOCTYPE svg PUBLIC "-//W3C//DTD SVG 1.1//EN" "http://www.w3.org/Graphics/SVG/1.1/DTD/svg11.dtd"><svg width="16px" height="16px" viewBox="0 0 16 16" version="1.1" xmlns="http://www.w3.org/2000/svg" xmlns:xlink="http://www.w3.org/1999/xlink" xml:space="preserve" xmlns:serif="http://www.serif.com/" style="fill-rule:evenodd;clip-rule:evenodd;stroke-linejoin:round;stroke-miterlimit:2;"><path d="M1.011,2.5L1.511,2L6.507,2L6.861,2.146L7.713,2.999L14.501,2.999L15.001,3.499L14.99,13.502L14.49,14.002L1.5,14.002L1,13.502L1.011,2.5ZM14.001,3.999L14.001,5.003L7.501,5.003L7.147,5.15L6.289,6.007L2.011,6.007L2.011,3L6.3,3L7.153,3.853L7.506,3.999L14.001,3.999ZM6.496,7.007L2.011,7.007L2,13.002L13.99,13.002L13.99,6.003L7.708,6.003L6.85,6.861L6.496,7.007Z"/></svg>