<?xml version="1.0" encoding="UTF-8" standalone="no"?><!DOCTYPE svg PUBLIC "-//W3C//DTD SVG 1.1//EN" "http://www.w3.org/Graphics/SVG/1.1/DTD/svg11.dtd"><svg width="16px" height="16px" viewBox="0 0 16 16" version="1.1" xmlns="http://www.w3.org/2000/svg" xmlns:xlink="http://www.w3.org/1999/xlink" xml:space="preserve" xmlns:serif="http://www.serif.com/" style="fill-rule:evenodd;clip-rule:evenodd;stroke-linejoin:round;stroke-miterlimit:2;"><path d="M8.004,0.985C11.88,0.985 15.027,4.132 15.027,8.009C15.027,11.885 11.88,15.032 8.004,15.032C4.127,15.032 0.98,11.885 0.98,8.009C0.98,4.132 4.127,0.985 8.004,0.985ZM8,2C11.311,2 14,4.689 14,8C14,11.311 11.311,14 8,14C4.689,14 2,11.311 2,8C2,4.689 4.689,2 8,2ZM8,7.5L10.4,5L11.1,5.7L8.7,8.2L11.1,10.7L10.4,11.4L8,8.9L5.6,11.4L4.9,10.7L7.3,8.2L4.9,5.7L5.6,5L8,7.5Z"/></svg>