<?xml version="1.0" encoding="UTF-8" standalone="no"?><!DOCTYPE svg PUBLIC "-//W3C//DTD SVG 1.1//EN" "http://www.w3.org/Graphics/SVG/1.1/DTD/svg11.dtd"><svg width="16px" height="16px" viewBox="0 0 16 16" version="1.1" xmlns="http://www.w3.org/2000/svg" xmlns:xlink="http://www.w3.org/1999/xlink" xml:space="preserve" xmlns:serif="http://www.serif.com/" style="fill-rule:evenodd;clip-rule:evenodd;stroke-linejoin:round;stroke-miterlimit:2;"><path d="M11.8,13.831L12.97,13.831L12.97,15.001L11.8,15.001L11.8,13.831ZM10.5,15L3,15L2,14L2,2L3,1L9,1L9.707,1.293L12.707,4.293L13,5L13,7L12,7L12,6L8,6L8,2L3,2L3,14L10.5,14L10.5,15ZM14.05,8.581C14.205,8.737 14.324,8.925 14.4,9.131C14.468,9.348 14.502,9.574 14.5,9.801C14.5,10.019 14.463,10.236 14.39,10.441C14.319,10.635 14.225,10.82 14.11,10.991C14.001,11.159 13.881,11.32 13.75,11.471L13.39,11.911C13.286,12.04 13.192,12.177 13.11,12.321C13.041,12.451 13.003,12.595 13,12.741L13,13.231L11.8,13.231L11.8,12.571C11.796,12.399 11.831,12.229 11.9,12.071C11.973,11.912 12.063,11.761 12.17,11.621C12.28,11.481 12.4,11.341 12.52,11.211L12.87,10.791C12.977,10.648 13.067,10.494 13.14,10.331C13.213,10.174 13.25,10.004 13.25,9.831C13.251,9.728 13.231,9.626 13.19,9.531C13.154,9.447 13.099,9.371 13.03,9.311C12.967,9.25 12.892,9.202 12.81,9.171C12.721,9.157 12.629,9.157 12.54,9.171C12.436,9.165 12.333,9.182 12.236,9.22C11.939,9.349 11.742,9.638 11.73,9.961L10.5,9.961C10.52,9.716 10.571,9.474 10.65,9.241C10.735,9.012 10.864,8.801 11.03,8.621C11.2,8.425 11.411,8.271 11.65,8.171C11.928,8.054 12.228,7.996 12.53,8.001C12.841,7.991 13.151,8.045 13.44,8.161C13.67,8.258 13.877,8.401 14.05,8.581ZM12,5L9,2L9,5L12,5Z"/></svg>