<?xml version="1.0" encoding="UTF-8" standalone="no"?><!DOCTYPE svg PUBLIC "-//W3C//DTD SVG 1.1//EN" "http://www.w3.org/Graphics/SVG/1.1/DTD/svg11.dtd"><svg width="16px" height="16px" viewBox="0 0 16 16" version="1.1" xmlns="http://www.w3.org/2000/svg" xmlns:xlink="http://www.w3.org/1999/xlink" xml:space="preserve" xmlns:serif="http://www.serif.com/" style="fill-rule:evenodd;clip-rule:evenodd;stroke-linejoin:round;stroke-miterlimit:2;"><g transform="matrix(1,0,0,1,0,-1)"><path d="M16,13L3,13L3,14L16,14L16,13ZM16,9L6,9L6,10L16,10L16,9ZM7,6L4,6L4,9L3,9L3,6L0,6L0,5L3,5L3,2L4,2L4,5L7,5L7,6ZM16,5L9,5L9,6L16,6L16,5Z" style="fill:rgb(197,197,197);"/></g></svg>