<?xml version="1.0" encoding="UTF-8" standalone="no"?><!DOCTYPE svg PUBLIC "-//W3C//DTD SVG 1.1//EN" "http://www.w3.org/Graphics/SVG/1.1/DTD/svg11.dtd"><svg width="16px" height="16px" viewBox="0 0 16 16" version="1.1" xmlns="http://www.w3.org/2000/svg" xmlns:xlink="http://www.w3.org/1999/xlink" xml:space="preserve" xmlns:serif="http://www.serif.com/" style="fill-rule:evenodd;clip-rule:evenodd;stroke-linejoin:round;stroke-miterlimit:2;"><path d="M7,4L7,4L4,4L4,7L3,7L3,4L0,4L0,3L3,3L3,0L4,0L4,3L7,3L7,3.999L8,3.999L8,3L13,3L14.001,4L14,10L14,12L14.999,12L14.999,8L15.001,8L15,5L14.999,5L14.999,4L15,4L15,1.999L5,2L5,1L14.999,1L16,2L15.999,8L15.999,12L14.999,13L14,13L14,14L13,15L1,15L0,14L0,5L1,5L1,14L13,14L13,10L13.002,10L13.001,7L13,7L13,6L13.001,6L13.001,3.999L8,3.999L8,4L7,4Z" style="fill:rgb(66,66,66);"/></svg>