<?xml version="1.0" encoding="UTF-8" standalone="no"?><!DOCTYPE svg PUBLIC "-//W3C//DTD SVG 1.1//EN" "http://www.w3.org/Graphics/SVG/1.1/DTD/svg11.dtd"><svg width="16px" height="16px" viewBox="0 0 16 16" version="1.1" xmlns="http://www.w3.org/2000/svg" xmlns:xlink="http://www.w3.org/1999/xlink" xml:space="preserve" xmlns:serif="http://www.serif.com/" style="fill-rule:evenodd;clip-rule:evenodd;stroke-linejoin:round;stroke-miterlimit:2;"><path d="M7.611,11.834L6.72,9.484L3.158,9.484L2.32,11.834L1.225,11.834L4.442,3.432L5.462,3.432L8.702,11.834L7.611,11.834ZM5.08,5.02L5.036,4.885L4.998,4.729L4.969,4.577L4.945,4.451L4.922,4.451L4.901,4.577L4.869,4.729L4.831,4.885L4.787,5.02L3.48,8.594L6.398,8.594L5.08,5.02ZM13.02,11.834L13.02,10.896L12.997,10.896C12.798,11.248 12.541,11.516 12.226,11.702C11.911,11.888 11.553,11.98 11.151,11.98C10.838,11.98 10.563,11.935 10.325,11.845C10.087,11.755 9.887,11.633 9.727,11.479C9.567,11.325 9.446,11.141 9.364,10.928C9.282,10.715 9.24,10.486 9.24,10.24C9.24,9.978 9.279,9.738 9.357,9.519C9.435,9.3 9.555,9.107 9.717,8.939C9.879,8.771 10.084,8.631 10.332,8.52C10.58,8.409 10.876,8.33 11.22,8.283L13.031,8.031C13.031,7.758 13.002,7.524 12.943,7.331C12.884,7.138 12.8,6.98 12.691,6.859C12.582,6.738 12.45,6.649 12.295,6.592C12.14,6.535 11.97,6.507 11.782,6.507C11.419,6.507 11.068,6.571 10.73,6.7C10.392,6.829 10.092,7.01 9.826,7.24L9.826,6.256C9.908,6.197 10.022,6.135 10.169,6.068C10.316,6.001 10.481,5.94 10.664,5.883C10.847,5.826 11.042,5.779 11.247,5.742C11.452,5.705 11.654,5.686 11.853,5.686C12.552,5.686 13.082,5.88 13.441,6.269C13.8,6.658 13.98,7.211 13.98,7.93L13.98,11.832L13.02,11.832L13.02,11.834ZM11.566,9.004C11.293,9.039 11.068,9.089 10.892,9.153C10.716,9.217 10.579,9.297 10.482,9.39C10.385,9.483 10.317,9.595 10.28,9.724C10.243,9.853 10.225,10 10.225,10.164C10.225,10.305 10.25,10.435 10.301,10.557C10.352,10.679 10.425,10.784 10.521,10.873C10.617,10.962 10.736,11.033 10.878,11.084C11.02,11.135 11.186,11.16 11.373,11.16C11.615,11.16 11.838,11.115 12.041,11.025C12.244,10.935 12.419,10.811 12.565,10.653C12.711,10.495 12.826,10.309 12.908,10.096C12.99,9.883 13.031,9.654 13.031,9.408L13.031,8.799L11.566,9.004Z" style="fill:rgb(197,197,197);fill-rule:nonzero;"/></svg>