<?xml version="1.0" encoding="UTF-8" standalone="no"?><!DOCTYPE svg PUBLIC "-//W3C//DTD SVG 1.1//EN" "http://www.w3.org/Graphics/SVG/1.1/DTD/svg11.dtd"><svg width="16px" height="16px" viewBox="0 0 16 16" version="1.1" xmlns="http://www.w3.org/2000/svg" xmlns:xlink="http://www.w3.org/1999/xlink" xml:space="preserve" xmlns:serif="http://www.serif.com/" style="fill-rule:evenodd;clip-rule:evenodd;stroke-linejoin:round;stroke-miterlimit:2;"><g transform="matrix(1,0,0,1,0,-1)"><path d="M3.414,11L5.537,13.123L4.83,13.83L2.002,11.002L2.003,11L2,11L2,10L2.006,10L4.833,7.173L5.54,7.88L3.42,10L11,10L11.006,10C12.107,9.996 13,9.102 13,8C13,6.896 12.104,6 11,6L9,6L9,5L11,5L11.01,5C12.661,5.005 14,6.348 14,8C14,9.656 12.656,11 11,11L3.414,11Z" style="fill:rgb(65,65,65);fill-opacity:0.4;"/></g></svg>