<?xml version="1.0" encoding="UTF-8" standalone="no"?><!DOCTYPE svg PUBLIC "-//W3C//DTD SVG 1.1//EN" "http://www.w3.org/Graphics/SVG/1.1/DTD/svg11.dtd"><svg width="16px" height="16px" viewBox="0 0 16 16" version="1.1" xmlns="http://www.w3.org/2000/svg" xmlns:xlink="http://www.w3.org/1999/xlink" xml:space="preserve" xmlns:serif="http://www.serif.com/" style="fill-rule:evenodd;clip-rule:evenodd;stroke-linejoin:round;stroke-miterlimit:2;"><g transform="matrix(0.5,0,0,0.5,-1182,-9.5)"><path d="M2377,24C2374.43,24.009 2372.1,26.277 2372.1,28.949C2372.1,31.662 2374.29,33.869 2377,33.897L2380,33.897L2380,24L2377,24ZM2382,24L2382,46L2384,46L2384,24L2382,24ZM2388,24L2386,24L2386,46L2388,46L2388,48L2378,48L2378,46L2380,46L2380,36L2376.98,36C2373.12,35.987 2370,32.856 2370,29C2370,25.137 2373.14,22 2377,22L2388,22L2388,24Z" style="fill:rgb(197,197,197);"/></g></svg>